<svg xmlns="http://www.w3.org/2000/svg" xmlns:xlink="http://www.w3.org/1999/xlink" version="1.1" class="marks" width="440" height="224" viewBox="0 0 440 224"><rect width="440" height="224" fill="white"/><g fill="none" stroke-miterlimit="4" transform="translate(51,22)"><g class="mark-group role-frame root" role="graphics-object" aria-roledescription="group mark container"><g transform="translate(0,0)"><path class="background" aria-hidden="true" d="M0.5,0.5h380v180h-380Z" stroke="#ddd"/><g><g class="mark-group role-axis" aria-hidden="true"><g transform="translate(0.5,180.5)"><path class="background" aria-hidden="true" d="M0,0h0v0h0Z" pointer-events="none"/><g><g class="mark-rule role-axis-grid" pointer-events="none"><line transform="translate(0,-180)" x2="0" y2="180" stroke="#ddd" stroke-width="1" opacity="1"/><line transform="translate(35,-180)" x2="0" y2="180" stroke="#ddd" stroke-width="1" opacity="1"/><line transform="translate(67,-180)" x2="0" y2="180" stroke="#ddd" stroke-width="1" opacity="1"/><line transform="translate(102,-180)" x2="0" y2="180" stroke="#ddd" stroke-width="1" opacity="1"/><line transform="translate(137,-180)" x2="0" y2="180" stroke="#ddd" stroke-width="1" opacity="1"/><line transform="translate(172,-180)" x2="0" y2="180" stroke="#ddd" stroke-width="1" opacity="1"/><line transform="translate(206,-180)" x2="0" y2="180" stroke="#ddd" stroke-width="1" opacity="1"/><line transform="translate(241,-180)" x2="0" y2="180" stroke="#ddd" stroke-width="1" opacity="1"/><line transform="translate(276,-180)" x2="0" y2="180" stroke="#ddd" stroke-width="1" opacity="1"/><line transform="translate(311,-180)" x2="0" y2="180" stroke="#ddd" stroke-width="1" opacity="1"/><line transform="translate(346,-180)" x2="0" y2="180" stroke="#ddd" stroke-width="1" opacity="1"/><line transform="translate(380,-180)" x2="0" y2="180" stroke="#ddd" stroke-width="1" opacity="1"/></g></g><path class="foreground" aria-hidden="true" d="" pointer-events="none" display="none"/></g></g><g class="mark-group role-axis" aria-hidden="true"><g transform="translate(0.5,0.5)"><path class="background" aria-hidden="true" d="M0,0h0v0h0Z" pointer-events="none"/><g><g class="mark-rule role-axis-grid" pointer-events="none"><line transform="translate(0,180)" x2="380" y2="0" stroke="#ddd" stroke-width="1" opacity="1"/><line transform="translate(0,145)" x2="380" y2="0" stroke="#ddd" stroke-width="1" opacity="1"/><line transform="translate(0,111)" x2="380" y2="0" stroke="#ddd" stroke-width="1" opacity="1"/><line transform="translate(0,76)" x2="380" y2="0" stroke="#ddd" stroke-width="1" opacity="1"/><line transform="translate(0,42)" x2="380" y2="0" stroke="#ddd" stroke-width="1" opacity="1"/><line transform="translate(0,7)" x2="380" y2="0" stroke="#ddd" stroke-width="1" opacity="1"/></g></g><path class="foreground" aria-hidden="true" d="" pointer-events="none" display="none"/></g></g><g class="mark-group role-axis" role="graphics-symbol" aria-roledescription="axis" aria-label="X-axis for a utc scale with values from Mittwoch, 01 Januar 2025, 00:00:00 UTC to Montag, 01 Dezember 2025, 00:00:00 UTC"><g transform="translate(0.5,180.5)"><path class="background" aria-hidden="true" d="M0,0h0v0h0Z" pointer-events="none"/><g><g class="mark-rule role-axis-tick" pointer-events="none"><line transform="translate(0,0)" x2="0" y2="5" stroke="#888" stroke-width="1" opacity="1"/><line transform="translate(35,0)" x2="0" y2="5" stroke="#888" stroke-width="1" opacity="1"/><line transform="translate(67,0)" x2="0" y2="5" stroke="#888" stroke-width="1" opacity="1"/><line transform="translate(102,0)" x2="0" y2="5" stroke="#888" stroke-width="1" opacity="1"/><line transform="translate(137,0)" x2="0" y2="5" stroke="#888" stroke-width="1" opacity="1"/><line transform="translate(172,0)" x2="0" y2="5" stroke="#888" stroke-width="1" opacity="1"/><line transform="translate(206,0)" x2="0" y2="5" stroke="#888" stroke-width="1" opacity="1"/><line transform="translate(241,0)" x2="0" y2="5" stroke="#888" stroke-width="1" opacity="1"/><line transform="translate(276,0)" x2="0" y2="5" stroke="#888" stroke-width="1" opacity="1"/><line transform="translate(311,0)" x2="0" y2="5" stroke="#888" stroke-width="1" opacity="1"/><line transform="translate(346,0)" x2="0" y2="5" stroke="#888" stroke-width="1" opacity="1"/><line transform="translate(380,0)" x2="0" y2="5" stroke="#888" stroke-width="1" opacity="1"/></g><g class="mark-text role-axis-label" pointer-events="none"><text text-anchor="start" transform="translate(0,15)" font-family="sans-serif" font-size="10px" fill="#000" opacity="1">2025</text><text text-anchor="middle" transform="translate(35.26946107784431,15)" font-family="sans-serif" font-size="10px" fill="#000" opacity="0">Februar</text><text text-anchor="middle" transform="translate(67.12574850299401,15)" font-family="sans-serif" font-size="10px" fill="#000" opacity="1">März</text><text text-anchor="middle" transform="translate(102.39520958083833,15)" font-family="sans-serif" font-size="10px" fill="#000" opacity="0">April</text><text text-anchor="middle" transform="translate(136.52694610778443,15)" font-family="sans-serif" font-size="10px" fill="#000" opacity="1">Mai</text><text text-anchor="middle" transform="translate(171.79640718562874,15)" font-family="sans-serif" font-size="10px" fill="#000" opacity="0">Juni</text><text text-anchor="middle" transform="translate(205.92814371257484,15)" font-family="sans-serif" font-size="10px" fill="#000" opacity="1">Juli</text><text text-anchor="middle" transform="translate(241.19760479041918,15)" font-family="sans-serif" font-size="10px" fill="#000" opacity="0">August</text><text text-anchor="middle" transform="translate(276.4670658682635,15)" font-family="sans-serif" font-size="10px" fill="#000" opacity="1">September</text><text text-anchor="middle" transform="translate(310.5988023952096,15)" font-family="sans-serif" font-size="10px" fill="#000" opacity="0">Oktober</text><text text-anchor="middle" transform="translate(345.8682634730539,15)" font-family="sans-serif" font-size="10px" fill="#000" opacity="1">November</text><text text-anchor="end" transform="translate(380,15)" font-family="sans-serif" font-size="10px" fill="#000" opacity="0">Dezember</text></g><g class="mark-rule role-axis-domain" pointer-events="none"><line transform="translate(0,0)" x2="380" y2="0" stroke="#888" stroke-width="1" opacity="1"/></g></g><path class="foreground" aria-hidden="true" d="" pointer-events="none" display="none"/></g></g><g class="mark-group role-axis" role="graphics-symbol" aria-roledescription="axis" aria-label="Y-axis for a linear scale with values from 0 € to 26.000 €"><g transform="translate(0.5,0.5)"><path class="background" aria-hidden="true" d="M0,0h0v0h0Z" pointer-events="none"/><g><g class="mark-rule role-axis-tick" pointer-events="none"><line transform="translate(0,180)" x2="-5" y2="0" stroke="#888" stroke-width="1" opacity="1"/><line transform="translate(0,145)" x2="-5" y2="0" stroke="#888" stroke-width="1" opacity="1"/><line transform="translate(0,111)" x2="-5" y2="0" stroke="#888" stroke-width="1" opacity="1"/><line transform="translate(0,76)" x2="-5" y2="0" stroke="#888" stroke-width="1" opacity="1"/><line transform="translate(0,42)" x2="-5" y2="0" stroke="#888" stroke-width="1" opacity="1"/><line transform="translate(0,7)" x2="-5" y2="0" stroke="#888" stroke-width="1" opacity="1"/></g><g class="mark-text role-axis-label" pointer-events="none"><text text-anchor="end" transform="translate(-7,183)" font-family="sans-serif" font-size="10px" fill="#000" opacity="1">0 €</text><text text-anchor="end" transform="translate(-7,148.3846153846154)" font-family="sans-serif" font-size="10px" fill="#000" opacity="1">5.000 €</text><text text-anchor="end" transform="translate(-7,113.76923076923077)" font-family="sans-serif" font-size="10px" fill="#000" opacity="1">10.000 €</text><text text-anchor="end" transform="translate(-7,79.15384615384616)" font-family="sans-serif" font-size="10px" fill="#000" opacity="1">15.000 €</text><text text-anchor="end" transform="translate(-7,44.53846153846153)" font-family="sans-serif" font-size="10px" fill="#000" opacity="1">20.000 €</text><text text-anchor="end" transform="translate(-7,9.923076923076918)" font-family="sans-serif" font-size="10px" fill="#000" opacity="1">25.000 €</text></g><g class="mark-rule role-axis-domain" pointer-events="none"><line transform="translate(0,180)" x2="0" y2="-180" stroke="#888" stroke-width="1" opacity="1"/></g></g><path class="foreground" aria-hidden="true" d="" pointer-events="none" display="none"/></g></g><g class="mark-line role-mark layer_0_marks" role="graphics-object" aria-roledescription="line mark container"><path aria-label="month: Jan 01, 2025; revenue: 12.500 €" role="graphics-symbol" aria-roledescription="line mark" d="M0,93.462L35.269,84.462L67.126,74.769L102.395,82.385L136.527,63L171.796,52.615L205.928,58.154L241.198,46.385L276.467,34.615L310.599,38.769L345.868,22.846L380,6.231" stroke="#4c78a8" stroke-width="2"/></g><g class="mark-symbol role-mark layer_1_marks" role="graphics-object" aria-roledescription="symbol mark container"><path aria-label="month: Jan 01, 2025; revenue: 12.500 €" role="graphics-symbol" aria-roledescription="point" transform="translate(0,93.46153846153845)" d="M2.739,0A2.739,2.739,0,1,1,-2.739,0A2.739,2.739,0,1,1,2.739,0" fill="#4c78a8" stroke-width="2" opacity="1"/><path aria-label="month: Feb 01, 2025; revenue: 13.800 €" role="graphics-symbol" aria-roledescription="point" transform="translate(35.26946107784431,84.46153846153847)" d="M2.739,0A2.739,2.739,0,1,1,-2.739,0A2.739,2.739,0,1,1,2.739,0" fill="#4c78a8" stroke-width="2" opacity="1"/><path aria-label="month: Mrz 01, 2025; revenue: 15.200 €" role="graphics-symbol" aria-roledescription="point" transform="translate(67.12574850299401,74.76923076923076)" d="M2.739,0A2.739,2.739,0,1,1,-2.739,0A2.739,2.739,0,1,1,2.739,0" fill="#4c78a8" stroke-width="2" opacity="1"/><path aria-label="month: Apr 01, 2025; revenue: 14.100 €" role="graphics-symbol" aria-roledescription="point" transform="translate(102.39520958083833,82.38461538461539)" d="M2.739,0A2.739,2.739,0,1,1,-2.739,0A2.739,2.739,0,1,1,2.739,0" fill="#4c78a8" stroke-width="2" opacity="1"/><path aria-label="month: Mai 01, 2025; revenue: 16.900 €" role="graphics-symbol" aria-roledescription="point" transform="translate(136.52694610778443,62.99999999999999)" d="M2.739,0A2.739,2.739,0,1,1,-2.739,0A2.739,2.739,0,1,1,2.739,0" fill="#4c78a8" stroke-width="2" opacity="1"/><path aria-label="month: Jun 01, 2025; revenue: 18.400 €" role="graphics-symbol" aria-roledescription="point" transform="translate(171.79640718562874,52.615384615384606)" d="M2.739,0A2.739,2.739,0,1,1,-2.739,0A2.739,2.739,0,1,1,2.739,0" fill="#4c78a8" stroke-width="2" opacity="1"/><path aria-label="month: Jul 01, 2025; revenue: 17.600 €" role="graphics-symbol" aria-roledescription="point" transform="translate(205.92814371257484,58.153846153846146)" d="M2.739,0A2.739,2.739,0,1,1,-2.739,0A2.739,2.739,0,1,1,2.739,0" fill="#4c78a8" stroke-width="2" opacity="1"/><path aria-label="month: Aug 01, 2025; revenue: 19.300 €" role="graphics-symbol" aria-roledescription="point" transform="translate(241.19760479041918,46.38461538461538)" d="M2.739,0A2.739,2.739,0,1,1,-2.739,0A2.739,2.739,0,1,1,2.739,0" fill="#4c78a8" stroke-width="2" opacity="1"/><path aria-label="month: Sep 01, 2025; revenue: 21.000 €" role="graphics-symbol" aria-roledescription="point" transform="translate(276.4670658682635,34.61538461538461)" d="M2.739,0A2.739,2.739,0,1,1,-2.739,0A2.739,2.739,0,1,1,2.739,0" fill="#4c78a8" stroke-width="2" opacity="1"/><path aria-label="month: Okt 01, 2025; revenue: 20.400 €" role="graphics-symbol" aria-roledescription="point" transform="translate(310.5988023952096,38.769230769230774)" d="M2.739,0A2.739,2.739,0,1,1,-2.739,0A2.739,2.739,0,1,1,2.739,0" fill="#4c78a8" stroke-width="2" opacity="1"/><path aria-label="month: Nov 01, 2025; revenue: 22.700 €" role="graphics-symbol" aria-roledescription="point" transform="translate(345.8682634730539,22.846153846153847)" d="M2.739,0A2.739,2.739,0,1,1,-2.739,0A2.739,2.739,0,1,1,2.739,0" fill="#4c78a8" stroke-width="2" opacity="1"/><path aria-label="month: Dez 01, 2025; revenue: 25.100 €" role="graphics-symbol" aria-roledescription="point" transform="translate(380,6.230769230769228)" d="M2.739,0A2.739,2.739,0,1,1,-2.739,0A2.739,2.739,0,1,1,2.739,0" fill="#4c78a8" stroke-width="2" opacity="1"/></g><g class="mark-group role-title"><g transform="translate(190,-17)"><path class="background" aria-hidden="true" d="M0,0h0v0h0Z" pointer-events="none"/><g><g class="mark-text role-title-text" role="graphics-symbol" aria-roledescription="title" aria-label="Title text 'Monthly Revenue'" pointer-events="none"><text text-anchor="middle" transform="translate(0,10)" font-family="sans-serif" font-size="13px" font-weight="bold" fill="#000" opacity="1">Monthly Revenue</text></g></g><path class="foreground" aria-hidden="true" d="" pointer-events="none" display="none"/></g></g></g><path class="foreground" aria-hidden="true" d="" display="none"/></g></g></g></svg>