<svg xmlns="http://www.w3.org/2000/svg" viewBox="0 0 71 48.08" role="img" aria-labelledby="title">
  <title id="title">VlConvert logo</title>
  <polygon fill="#fbc02d" points="37 5 42 0 66 0 71 5 71 15 60 15 60 11 48 11 48 37 60 37 60 33 71 33 71 43 66 48 42 48 37 43"/>
  <polygon fill="#0692f2" points="17 48 33 48 16 0 0 0"/>
  <polygon fill="#2450b2" points="33 48 17 48 34 0 50 0"/>
  <polygon opacity="0.3" points="17 48.08 25 25.5 23.87 22.3"/>
  <polygon opacity="0.3" points="37 42.24 37 36.79 50 0.08"/>
</svg>
